<svg width="28" height="28" viewBox="0 0 28 28"  xmlns="http://www.w3.org/2000/svg">
<g id="Frame 52">
<path id="Vector" d="M17.08 4.06023C17.29 4.06023 17.5 4.06023 17.92 4.06023V7.21023C17.71 7.21023 17.29 7.21023 16.87 7.21023C16.45 7.21023 16.03 7.21023 15.82 7.42023C15.61 7.63023 15.61 7.84023 15.61 8.33023C15.61 8.75023 15.61 9.03023 15.61 9.45023H17.92V12.1102H15.61V23.6602H12.04V12.0402H10.15V9.38023H12.04V8.47023C12.04 6.93023 12.25 5.81023 12.67 5.32023C13.3 4.41023 14.56 3.99023 16.45 3.99023C16.66 4.06023 16.87 4.06023 17.08 4.06023Z"/>
</g>
</svg>
