<svg width="28" height="28" viewBox="0 0 28 28" fill="none" xmlns="http://www.w3.org/2000/svg">
<g id="icons / 40x40 / instagram" opacity="0.8">
<path id="Vector" d="M25.1279 9.41152C25.1142 8.47146 24.9401 7.53885 24.6067 6.65964C24.0233 5.15827 22.8354 3.97109 21.3315 3.38991C20.4621 3.06332 19.5428 2.88822 18.6124 2.86835C17.4158 2.81495 17.0364 2.80005 13.9988 2.80005C10.9612 2.80005 10.5719 2.80005 9.38397 2.86835C8.45478 2.88822 7.53554 3.06332 6.66606 3.38991C5.1622 3.97109 3.97304 5.15827 3.3909 6.65964C3.06375 7.52767 2.88712 8.44538 2.86971 9.37302C2.81622 10.5689 2.80005 10.9477 2.80005 13.9802C2.80005 17.0127 2.80005 17.4002 2.86971 18.5873C2.88837 19.5162 3.06375 20.4327 3.3909 21.3032C3.97428 22.8033 5.1622 23.9905 6.66731 24.5717C7.53306 24.9095 8.45229 25.1007 9.38521 25.1305C10.5831 25.1839 10.9625 25.2001 14.0001 25.2001C17.0376 25.2001 17.427 25.2001 18.6149 25.1305C19.5441 25.1119 20.4633 24.9368 21.334 24.6102C22.8379 24.0278 24.0258 22.8406 24.6092 21.3405C24.9363 20.4712 25.1117 19.5547 25.1304 18.6246C25.1839 17.43 25.2001 17.0512 25.2001 14.0174C25.1976 10.9849 25.1976 10.5999 25.1279 9.41152ZM13.9913 19.7149C10.8144 19.7149 8.24083 17.1456 8.24083 13.974C8.24083 10.8024 10.8144 8.23302 13.9913 8.23302C17.1658 8.23302 19.7419 10.8024 19.7419 13.974C19.7419 17.1456 17.1658 19.7149 13.9913 19.7149ZM19.9707 9.35936C19.2281 9.35936 18.6298 8.7608 18.6298 8.02067C18.6298 7.28055 19.2281 6.68199 19.9707 6.68199C20.7108 6.68199 21.3104 7.28055 21.3104 8.02067C21.3104 8.7608 20.7108 9.35936 19.9707 9.35936Z" fill="#F3F3F3"/>
<path id="Vector_2" d="M13.9931 17.4789C15.9281 17.4789 17.4966 15.9104 17.4966 13.9754C17.4966 12.0405 15.9281 10.4719 13.9931 10.4719C12.0582 10.4719 10.4896 12.0405 10.4896 13.9754C10.4896 15.9104 12.0582 17.4789 13.9931 17.4789Z" fill="#F3F3F3"/>
</g>
</svg>
